<?xml version="1.0" standalone="no"?>
<!DOCTYPE svg PUBLIC "-//W3C//DTD SVG 20010904//EN"
 "http://www.w3.org/TR/2001/REC-SVG-20010904/DTD/svg10.dtd">
<svg version="1.0" xmlns="http://www.w3.org/2000/svg"
 width="1021.000000pt" height="1024.000000pt" viewBox="0 0 1021.000000 1024.000000"
 preserveAspectRatio="xMidYMid meet">

<g transform="translate(0.000000,1024.000000) scale(0.100000,-0.100000)"
fill="#000000" stroke="none">
<path d="M4825 8150 c-354 -39 -643 -117 -945 -256 -851 -390 -1472 -1169
-1655 -2079 -42 -207 -57 -364 -58 -590 0 -388 61 -724 196 -1070 50 -129 168
-371 220 -452 26 -41 29 -43 77 -43 l49 0 -51 82 c-236 381 -383 858 -407
1326 -36 700 182 1383 617 1932 93 117 338 363 452 454 431 343 980 566 1510
613 132 12 504 8 615 -6 518 -66 990 -260 1410 -580 123 -94 386 -353 487
-481 438 -554 653 -1230 617 -1933 -24 -467 -171 -944 -407 -1325 l-51 -82 49
0 c48 0 51 2 77 43 53 83 171 324 220 452 135 347 195 675 195 1065 1 486
-100 910 -318 1338 -139 274 -318 519 -543 743 -461 460 -1028 742 -1676 835
-129 18 -560 27 -680 14z"/>
<path d="M5428 7983 c7 -3 16 -2 19 1 4 3 -2 6 -13 5 -11 0 -14 -3 -6 -6z"/>
<path d="M4345 7900 c-3 -6 1 -7 9 -4 18 7 21 14 7 14 -6 0 -13 -4 -16 -10z"/>
<path d="M6035 7840 c27 -12 43 -12 25 0 -8 5 -22 9 -30 9 -10 0 -8 -3 5 -9z"/>
<path d="M4038 7793 c7 -3 16 -2 19 1 4 3 -2 6 -13 5 -11 0 -14 -3 -6 -6z"/>
<path d="M6457 7649 c7 -7 15 -10 18 -7 3 3 -2 9 -12 12 -14 6 -15 5 -6 -5z"/>
<path d="M3500 7500 c-9 -6 -10 -10 -3 -10 6 0 15 5 18 10 8 12 4 12 -15 0z"/>
<path d="M4707 7311 c-142 -104 -260 -191 -263 -194 -9 -8 -5 -610 3 -617 5
-4 97 -42 205 -86 l198 -79 0 -742 c0 -409 1 -743 3 -744 23 -6 239 -34 242
-31 2 3 -7 13 -20 24 -24 19 -25 23 -25 154 l0 135 65 -57 c63 -56 65 -59 65
-106 0 -36 4 -48 15 -48 13 0 15 63 15 511 l0 512 63 -55 c41 -37 63 -64 65
-82 3 -25 4 -26 33 -11 33 17 36 27 14 45 -12 10 -15 40 -15 147 l0 134 65
-58 65 -58 0 -63 c0 -47 3 -63 13 -60 6 3 13 23 15 46 4 47 11 51 37 22 10
-11 24 -20 31 -20 30 0 23 24 -20 61 l-46 41 0 129 c0 149 -6 146 91 54 l50
-47 -1 -92 c-1 -50 -1 -95 -1 -99 1 -4 10 -3 21 3 20 10 20 21 20 448 l0 437
-356 315 c-196 173 -363 316 -373 317 -9 1 -132 -83 -274 -186z m420 -20 l53
-46 0 -133 0 -134 -65 57 -65 57 0 130 c0 145 -5 140 77 69z m167 -149 l47
-43 -3 -129 -3 -129 -62 56 -63 55 0 130 c0 147 -6 143 84 60z m179 -159 c28
-30 28 -30 25 -157 l-3 -127 -62 56 -63 57 0 130 0 130 38 -30 c20 -17 50 -43
65 -59z m-293 -191 l0 -133 -65 57 -65 58 0 133 0 134 65 -58 65 -58 0 -133z
m453 48 l38 -35 -2 -123 c-1 -72 -6 -121 -12 -119 -5 1 -36 25 -68 52 l-59 50
0 134 0 135 33 -29 c17 -17 49 -45 70 -65z m-352 -2 l59 -53 0 -133 0 -134
-65 57 -65 57 0 129 c0 71 3 129 6 129 3 0 32 -24 65 -52z m173 -156 l47 -43
-3 -129 -3 -129 -62 56 -63 55 0 130 c0 147 -6 143 84 60z m-274 -203 c0 -71
-3 -129 -6 -129 -3 0 -32 24 -65 53 l-59 52 0 133 0 134 65 -57 65 -57 0 -129z
m443 51 l48 -45 -2 -122 c-1 -68 -5 -123 -9 -123 -4 0 -34 25 -68 56 l-62 56
0 130 0 131 23 -19 c12 -10 44 -39 70 -64z m-283 -198 l0 -133 -65 58 -65 58
0 133 0 133 65 -58 65 -58 0 -133z m101 46 l59 -53 0 -133 0 -134 -65 57 -65
57 0 129 c0 71 3 129 6 129 3 0 32 -24 65 -52z m-263 -218 c3 -150 9 -146 -82
-62 l-46 42 0 132 0 131 63 -55 62 -56 3 -132z m162 -141 c0 -71 -3 -129 -6
-129 -3 0 -32 24 -65 53 l-59 52 0 133 0 134 65 -57 65 -57 0 -129z m-187 -26
c28 -30 28 -30 25 -156 l-3 -127 -62 56 -63 56 0 130 0 130 38 -30 c20 -17 50
-43 65 -59z m-19 -300 l47 -41 -3 -130 -3 -131 -62 56 -63 55 0 130 c0 147 -7
142 84 61z m-13 -305 l59 -53 0 -133 0 -133 -65 57 -65 58 0 128 c0 70 3 128
6 128 3 0 32 -24 65 -52z"/>
<path d="M6767 7449 c7 -7 15 -10 18 -7 3 3 -2 9 -12 12 -14 6 -15 5 -6 -5z"/>
<path d="M3335 7380 c-3 -5 -1 -10 4 -10 6 0 11 5 11 10 0 6 -2 10 -4 10 -3 0
-8 -4 -11 -10z"/>
<path d="M6956 7297 c3 -10 9 -15 12 -12 3 3 0 11 -7 18 -10 9 -11 8 -5 -6z"/>
<path d="M3165 7230 c-3 -5 -2 -10 4 -10 5 0 13 5 16 10 3 6 2 10 -4 10 -5 0
-13 -4 -16 -10z"/>
<path d="M7030 7226 c0 -2 8 -10 18 -17 15 -13 16 -12 3 4 -13 16 -21 21 -21
13z"/>
<path d="M3118 7180 c-16 -14 -28 -29 -28 -34 0 -5 14 6 32 23 38 37 34 48 -4
11z"/>
<path d="M7871 5514 c0 -11 3 -14 6 -6 3 7 2 16 -1 19 -3 4 -6 -2 -5 -13z"/>
<path d="M2332 5490 c0 -14 2 -19 5 -12 2 6 2 18 0 25 -3 6 -5 1 -5 -13z"/>
<path d="M2311 5164 c0 -11 3 -14 6 -6 3 7 2 16 -1 19 -3 4 -6 -2 -5 -13z"/>
<path d="M2371 4654 c0 -11 3 -14 6 -6 3 7 2 16 -1 19 -3 4 -6 -2 -5 -13z"/>
<path d="M3614 4213 c-214 -225 -396 -417 -404 -428 -8 -10 75 57 185 151 110
93 291 247 402 342 112 95 206 172 209 172 4 0 47 -30 97 -67 133 -100 381
-272 386 -268 4 4 -466 499 -478 503 -5 2 -184 -181 -397 -405z"/>
<path d="M6275 4338 c-33 -5 -222 -31 -420 -59 -198 -27 -375 -52 -392 -55
-33 -5 -33 -5 -33 -63 0 -48 -4 -61 -25 -81 l-25 -23 0 131 0 132 -79 0 -80 0
-3 -52 -3 -53 -45 -6 c-25 -4 -70 -10 -101 -14 l-56 -6 -299 -285 c-164 -157
-328 -315 -364 -350 l-65 -64 671 0 670 0 359 378 c197 207 361 378 364 378 3
1 53 -49 111 -110 189 -199 375 -391 358 -371 -161 206 -471 585 -476 584 -4
-1 -34 -6 -67 -11z"/>
<path d="M2496 4237 c3 -10 9 -15 12 -12 3 3 0 11 -7 18 -10 9 -11 8 -5 -6z"/>
<path d="M7700 4229 c0 -5 5 -7 10 -4 6 3 10 8 10 11 0 2 -4 4 -10 4 -5 0 -10
-5 -10 -11z"/>
<path d="M3904 4151 c-36 -22 -64 -84 -57 -124 5 -26 8 -27 69 -27 l64 0 0 85
c0 81 -1 85 -22 85 -13 0 -37 -9 -54 -19z"/>
<path d="M4030 4085 l0 -85 71 0 71 0 -7 47 c-11 76 -56 123 -116 123 -17 0
-19 -8 -19 -85z"/>
<path d="M2596 4007 c3 -10 9 -15 12 -12 3 3 0 11 -7 18 -10 9 -11 8 -5 -6z"/>
<path d="M3845 3885 l0 -65 68 0 67 0 0 65 0 65 -67 0 -68 0 0 -65z"/>
<path d="M4030 3885 l0 -65 70 0 70 0 0 65 0 65 -70 0 -70 0 0 -65z"/>
<path d="M4201 3231 c1 -76 2 -79 13 -29 9 39 52 58 131 58 l65 0 0 -258 c0
-234 -2 -260 -17 -274 -10 -9 -25 -18 -33 -21 -8 -3 44 -5 115 -5 72 0 121 3
110 5 -45 11 -45 13 -45 289 l0 264 68 0 c73 0 106 -15 122 -54 6 -15 9 -4 9
40 l1 62 -37 -9 c-21 -5 -126 -9 -233 -9 -107 0 -212 4 -232 9 l-38 9 1 -77z"/>
<path d="M4820 3277 l25 -13 3 -249 c1 -138 0 -260 -3 -272 -3 -12 -17 -26
-32 -32 -21 -8 25 -10 177 -8 l205 2 67 33 c107 53 151 126 152 258 1 71 -3
87 -29 139 -36 70 -93 118 -167 140 -69 20 -438 22 -398 2z m335 -36 c86 -39
120 -109 120 -251 0 -111 -24 -173 -83 -218 -31 -24 -46 -27 -124 -30 l-88 -4
0 261 0 261 68 0 c43 0 81 -7 107 -19z"/>
<path d="M5528 3275 c22 -16 22 -18 22 -273 0 -141 -4 -262 -8 -269 -4 -7 -19
-17 -32 -22 -18 -8 25 -10 160 -8 167 2 189 5 225 24 67 35 88 65 93 131 5 71
-21 114 -87 148 -39 19 -42 22 -23 28 32 10 63 60 65 104 2 57 -19 96 -66 123
-39 22 -54 24 -207 27 -154 3 -164 2 -142 -13z m221 -26 c38 -13 61 -54 61
-108 0 -58 -19 -92 -63 -111 l-38 -17 40 -7 c72 -11 114 -90 92 -173 -15 -56
-50 -85 -111 -91 l-50 -5 0 262 c0 291 -4 275 69 250z"/>
<path d="M4218 2491 c-83 -5 -96 -8 -88 -21 5 -8 10 -72 10 -142 0 -102 -3
-130 -16 -142 -14 -15 -5 -16 99 -16 110 0 115 1 121 23 11 41 6 46 -19 22
-19 -20 -34 -25 -75 -25 l-50 0 0 65 0 65 39 0 c23 0 46 -7 55 -16 15 -14 16
-11 16 28 -1 34 -3 39 -11 26 -7 -13 -23 -18 -54 -18 l-45 0 0 65 0 65 55 0
c41 0 56 -4 64 -17 9 -15 10 -12 11 15 0 17 -3 31 -7 30 -5 -1 -52 -4 -105 -7z"/>
<path d="M4496 2348 c-37 -84 -75 -159 -84 -165 -13 -11 -9 -13 29 -13 31 0
40 3 29 10 -12 8 -12 13 3 44 16 35 19 36 71 36 53 0 55 -1 66 -35 6 -19 9
-39 5 -45 -4 -6 16 -10 56 -10 52 0 60 2 47 13 -9 6 -47 80 -84 162 -37 83
-68 151 -69 153 -1 1 -32 -66 -69 -150z m72 -15 l20 -53 -44 0 c-24 0 -44 3
-44 6 0 9 43 105 45 102 2 -2 12 -27 23 -55z"/>
<path d="M5100 2471 c0 -20 3 -22 12 -13 7 7 31 12 55 12 l43 0 0 -138 c0 -94
-4 -142 -12 -150 -9 -9 1 -12 47 -12 46 0 56 3 47 12 -8 8 -12 56 -12 150 l0
138 45 0 c31 0 47 -5 54 -17 9 -15 10 -13 11 12 l0 30 -145 0 -145 0 0 -24z"/>
<path d="M5562 2488 c-134 -45 -146 -239 -19 -305 44 -23 147 -21 189 4 53 31
78 77 78 143 0 66 -25 112 -77 143 -39 22 -126 30 -171 15z m120 -19 c11 -6
28 -29 39 -52 36 -81 17 -176 -43 -221 -23 -16 -34 -18 -64 -10 -52 13 -77 51
-82 123 -5 71 11 124 45 151 28 22 73 26 105 9z"/>
<path d="M6334 2491 c-43 -19 -65 -72 -48 -116 4 -9 40 -39 81 -66 64 -44 74
-54 71 -77 -2 -16 -13 -32 -30 -41 -35 -20 -75 -6 -104 37 l-22 32 -6 -24
c-10 -39 3 -54 53 -65 92 -20 161 18 161 87 0 47 -11 61 -80 105 -78 49 -86
61 -66 92 19 29 60 33 94 9 20 -14 23 -14 28 1 4 9 5 18 2 20 -9 10 -115 14
-134 6z"/>
<path d="M3748 2478 c15 -15 17 -261 2 -289 -10 -18 -7 -19 45 -19 51 0 55 1
41 16 -13 12 -16 41 -16 150 l0 134 34 0 c41 0 58 -18 59 -64 1 -36 -25 -76
-49 -76 -20 0 58 -133 86 -147 14 -7 42 -13 64 -13 l39 0 -25 20 c-14 11 -40
42 -58 70 -18 27 -37 50 -44 50 -6 1 0 7 13 14 55 31 65 93 22 137 -29 28 -33
29 -127 29 -76 0 -95 -3 -86 -12z"/>
<path d="M4820 2471 c5 -11 10 -76 10 -145 0 -100 -3 -128 -16 -140 -14 -15
-5 -16 99 -16 110 0 115 1 121 23 11 41 6 46 -19 22 -19 -20 -34 -25 -75 -25
l-50 0 0 138 c0 94 4 142 12 150 9 9 0 12 -40 12 -49 0 -52 -1 -42 -19z"/>
<path d="M5918 2479 c8 -9 12 -53 12 -145 0 -107 -3 -136 -16 -148 -14 -15
-10 -16 46 -16 56 0 60 1 46 16 -13 12 -16 41 -16 150 l0 134 34 0 c41 0 58
-19 58 -65 0 -37 -24 -75 -48 -75 -20 0 58 -133 86 -147 14 -7 42 -13 64 -13
l39 0 -25 20 c-14 11 -40 42 -58 70 -18 27 -37 50 -44 50 -6 1 0 7 13 14 52
29 64 89 27 133 -23 27 -29 28 -128 31 -84 3 -101 1 -90 -9z"/>
</g>
</svg>
